<?xml version="1.0" standalone="no"?>
<!DOCTYPE svg PUBLIC "-//W3C//DTD SVG 20010904//EN"
 "http://www.w3.org/TR/2001/REC-SVG-20010904/DTD/svg10.dtd">
<svg version="1.0" xmlns="http://www.w3.org/2000/svg"
 width="128.000000pt" height="128.000000pt" viewBox="0 0 128.000000 128.000000"
 preserveAspectRatio="xMidYMid meet">

<g transform="translate(0.000000,128.000000) scale(0.100000,-0.100000)"
fill="#000000" stroke="none">
<path d="M805 1064 c-33 -20 -83 -49 -112 -64 -29 -16 -65 -38 -82 -49 -16
-12 -33 -21 -37 -21 -4 0 -16 -8 -26 -17 -16 -14 -21 -15 -28 -4 -6 10 -9 8
-15 -8 -3 -12 -24 -33 -46 -46 -45 -29 -49 -30 -49 -10 0 33 -40 4 -40 -30 -1
-25 -87 -72 -92 -50 -2 10 -34 -4 -108 -48 -157 -92 -170 -102 -162 -132 6
-21 176 -232 305 -379 52 -60 89 -64 158 -18 60 40 129 85 148 97 47 29 47 30
12 35 l-33 5 43 30 c33 22 53 29 78 27 26 -3 31 -6 20 -13 -9 -5 -10 -9 -2 -9
6 0 19 10 28 23 8 12 18 21 20 20 3 -2 8 -2 13 -2 4 1 -11 5 -33 8 l-40 6 54
31 c42 25 60 30 81 24 15 -4 33 -4 41 0 8 6 1 10 -22 12 -32 3 -27 8 123 106
86 56 160 107 164 114 9 14 18 19 -206 -123 -25 -15 -89 -58 -143 -94 -54 -36
-104 -65 -111 -65 -13 0 -76 61 -76 73 0 4 16 7 35 7 28 0 35 4 35 20 0 11 5
20 10 20 6 0 10 -6 10 -14 0 -8 7 -17 16 -20 24 -9 82 -7 86 3 3 8 244 172
292 198 10 6 14 13 9 16 -8 5 -179 -94 -210 -122 -7 -6 -15 -11 -18 -11 -3 0
-23 -11 -43 -25 -37 -25 -112 -35 -112 -15 0 6 9 10 20 10 22 0 26 20 8 38 -9
9 -7 13 6 18 10 4 22 2 28 -4 12 -12 38 -5 38 11 0 6 -7 19 -17 29 -13 15 -13
18 -2 18 8 0 24 -7 36 -15 14 -10 24 -11 28 -5 3 5 -5 15 -19 22 -14 6 -26 18
-26 26 0 11 9 7 30 -13 16 -16 33 -25 37 -21 5 4 -1 14 -11 22 -27 20 -12 29
23 14 33 -13 55 -6 47 17 -9 23 3 34 24 23 10 -5 26 -7 35 -4 14 6 12 11 -11
35 -31 32 -18 39 30 14 46 -24 48 -7 4 34 -56 52 -33 61 26 10 25 -22 46 -36
46 -31 0 5 -17 25 -38 44 -31 28 -37 38 -28 50 10 13 24 3 93 -63 l83 -78 -28
-21 -27 -21 33 17 c17 10 32 21 32 25 0 3 -22 27 -49 52 -32 30 -46 50 -40 58
11 19 -10 41 -33 33 -14 -4 -46 19 -126 92 l-107 97 85 -85 85 -85 -37 -18
c-21 -10 -38 -21 -38 -25 0 -4 11 -17 25 -30 34 -32 25 -36 -23 -11 -57 29
-61 10 -10 -39 l43 -42 -40 23 c-22 12 -47 28 -56 36 -36 31 -39 8 -4 -47 29
-46 30 -51 9 -43 -8 3 -19 16 -24 29 -13 32 -41 46 -67 31 -11 -7 -39 -22 -62
-35 -22 -12 -41 -25 -41 -27 0 -3 17 -21 38 -40 l37 -36 -37 22 c-21 11 -38
25 -38 30 0 5 -7 9 -15 9 -8 0 -15 6 -15 14 0 7 -10 21 -22 30 -24 18 -21 18
37 2 11 -4 27 -2 35 3 12 8 11 13 -5 32 -14 16 -16 21 -5 17 52 -18 58 -18 98
12 23 16 46 30 51 30 20 0 18 29 -3 49 -17 16 -30 20 -49 16 -14 -4 -28 -2
-31 4 -4 7 1 11 12 11 11 0 23 8 26 17 6 14 14 9 51 -27 53 -53 74 -46 23 8
-20 20 -34 42 -31 49 8 23 -16 23 -44 0 -15 -13 -36 -26 -45 -30 -24 -8 -23
-22 3 -48 13 -13 27 -18 37 -14 30 11 37 10 37 -5 0 -8 -6 -14 -13 -12 -7 1
-21 -7 -31 -19 -21 -26 -45 -17 -35 13 5 17 3 19 -14 14 -26 -8 -37 8 -17 24
29 24 3 31 -33 9 -21 -12 -51 -30 -68 -39 -17 -10 -40 -24 -51 -31 -12 -7 -29
-9 -39 -5 -18 7 -18 8 1 18 19 11 216 137 224 144 2 2 2 6 -1 9 -6 6 -60 -22
-108 -54 -31 -22 -138 -81 -145 -81 -17 0 0 29 28 44 50 29 277 174 292 188
19 16 -1 7 -60 -28z m-310 -236 c-2 -18 -7 -64 -11 -101 l-7 -69 -40 40 c-36
36 -39 43 -33 76 5 27 17 43 44 61 49 31 52 31 47 -7z m223 11 c-2 -6 -8 -10
-13 -10 -5 0 -11 4 -13 10 -2 6 4 11 13 11 9 0 15 -5 13 -11z m62 -24 c11 -13
10 -14 -4 -9 -9 3 -16 10 -16 15 0 13 6 11 20 -6z m-165 -43 l30 -34 -37 22
c-21 12 -38 25 -38 29 0 7 13 24 14 18 1 -1 15 -17 31 -35z m45 30 c0 -15 -11
-21 -27 -15 -12 5 -12 7 -1 14 17 11 28 11 28 1z m70 -38 c0 -2 -9 0 -20 6
-11 6 -20 13 -20 16 0 2 9 0 20 -6 11 -6 20 -13 20 -16z m215 6 c3 -5 1 -10
-4 -10 -6 0 -11 5 -11 10 0 6 2 10 4 10 3 0 8 -4 11 -10z m-585 -12 c0 -7 -9
-67 -20 -133 -11 -66 -20 -137 -20 -157 0 -36 2 -38 33 -38 l32 0 -44 -26
c-28 -15 -56 -24 -75 -22 l-31 3 0 73 c0 59 -4 76 -17 86 -25 18 -22 24 10 28
36 4 44 48 11 63 -13 6 -24 17 -26 25 -3 10 -1 9 7 -2 19 -31 39 -21 46 23 5
31 15 45 43 65 40 27 51 30 51 12z m510 -14 c0 -17 -22 -14 -28 4 -2 7 3 12
12 12 9 0 16 -7 16 -16z m-432 -64 c31 -37 32 -43 26 -91 -8 -61 -3 -65 76
-75 45 -5 62 -13 93 -42 20 -20 37 -40 37 -44 0 -15 -24 -8 -47 14 -13 12 -23
16 -23 10 0 -16 -28 -15 -140 4 l-95 17 15 123 c8 68 17 124 20 124 3 0 20
-18 38 -40z m212 -10 c-6 -11 -14 -20 -17 -20 -3 0 -3 3 0 7 4 3 2 12 -4 19
-6 8 -8 21 -5 30 5 14 7 14 21 0 12 -12 14 -20 5 -36z m160 35 c0 -8 -6 -15
-14 -15 -17 0 -28 14 -19 24 12 12 33 6 33 -9z m-604 -77 l19 -23 -23 19 c-27
23 -41 13 -23 -17 14 -22 14 -22 -8 -3 -16 15 -18 22 -10 33 16 18 23 17 45
-9z m514 18 c0 -3 -4 -8 -10 -11 -5 -3 -10 -1 -10 4 0 6 5 11 10 11 6 0 10 -2
10 -4z m-557 -66 c-6 -6 -43 38 -43 52 0 5 11 -4 24 -19 13 -15 22 -30 19 -33z
m-37 8 c19 -22 19 -22 0 -8 -18 14 -19 13 -14 -7 7 -27 -13 -31 -32 -8 -11 13
-10 14 3 9 12 -4 14 -1 10 15 -7 27 9 27 33 -1z m79 -68 c0 -7 -5 -15 -10 -17
-6 -2 -11 6 -11 17 0 11 5 19 11 17 5 -2 10 -10 10 -17z m-38 -39 c10 -6 13
-11 7 -11 -15 0 -55 45 -47 54 4 4 10 -2 14 -13 4 -10 16 -24 26 -30z m333
-71 l25 -8 -22 -7 c-13 -4 -23 -11 -23 -15 0 -15 -53 -30 -86 -24 l-34 6 42
28 c46 30 58 33 98 20z m138 -23 c34 9 26 -3 -22 -31 -48 -28 -73 -35 -42 -11
10 7 15 18 11 24 -10 17 5 34 19 22 7 -6 22 -8 34 -4z"/>
<path d="M590 380 c0 -5 5 -10 11 -10 5 0 7 5 4 10 -3 6 -8 10 -11 10 -2 0 -4
-4 -4 -10z"/>
<path d="M960 520 c-9 -6 -10 -10 -3 -10 6 0 15 5 18 10 8 12 4 12 -15 0z"/>
</g>
</svg>
