<?xml version="1.0" standalone="no"?>
<!DOCTYPE svg PUBLIC "-//W3C//DTD SVG 20010904//EN"
 "http://www.w3.org/TR/2001/REC-SVG-20010904/DTD/svg10.dtd">
<svg version="1.0" xmlns="http://www.w3.org/2000/svg"
 width="128.000000pt" height="128.000000pt" viewBox="0 0 128.000000 128.000000"
 preserveAspectRatio="xMidYMid meet">
<metadata>
Created by potrace 1.16, written by Peter Selinger 2001-2019
</metadata>
<g transform="translate(0.000000,128.000000) scale(0.100000,-0.100000)"
fill="#000000" stroke="none">
<path d="M789 1194 c-1 -5 -1 -12 0 -17 1 -4 -10 -25 -24 -47 -14 -22 -25 -46
-25 -55 0 -8 -4 -15 -10 -15 -5 0 -10 -16 -10 -35 0 -20 -12 -68 -26 -108 -14
-39 -32 -95 -39 -122 -29 -109 -103 -189 -148 -161 -13 8 -21 5 -37 -12 -11
-12 -26 -22 -31 -22 -17 0 -79 -32 -79 -40 0 -4 13 -13 30 -19 17 -5 30 -14
30 -19 0 -5 12 -14 27 -21 23 -11 29 -10 40 5 7 10 13 25 13 35 0 14 6 15 38
9 55 -10 65 -18 58 -50 -4 -20 -1 -30 11 -34 9 -4 20 -1 24 5 10 16 101 18
106 2 3 -7 13 -13 23 -13 18 0 42 -22 39 -36 -4 -25 4 -34 31 -34 20 0 30 -5
30 -15 0 -12 -13 -15 -56 -15 -34 0 -53 -4 -49 -10 3 -6 -5 -10 -19 -10 -31 0
-45 19 -22 32 26 14 19 45 -12 56 -30 10 -64 1 -89 -23 -20 -21 -48 -15 -48 9
0 20 -30 45 -40 34 -4 -3 -2 -16 5 -27 9 -19 8 -21 -14 -21 -14 0 -28 -4 -31
-10 -10 -17 -25 -11 -25 10 0 23 -18 27 -26 5 -10 -26 -47 2 -41 31 5 28 4 29
-28 8 -20 -13 -23 -21 -18 -47 6 -31 32 -71 40 -63 3 2 -1 15 -8 28 -12 23
-12 23 10 4 25 -23 29 -61 5 -52 -31 12 -73 51 -73 69 -1 9 -9 26 -18 36 -35
39 -43 50 -43 66 0 8 8 15 18 15 13 0 14 -2 3 -9 -11 -7 -9 -11 8 -20 19 -11
21 -9 21 18 0 18 -7 35 -18 41 -14 9 -13 10 7 4 20 -5 23 -3 18 11 -4 9 -7 21
-7 26 0 5 -4 9 -10 9 -5 0 -10 -7 -10 -15 0 -8 -6 -15 -12 -16 -89 -5 -145
-13 -156 -21 -14 -12 -11 -4 23 76 9 21 14 41 11 44 -3 2 -8 -4 -11 -14 -3
-10 -15 -36 -25 -56 -38 -71 -30 -85 105 -183 l50 -36 -43 39 c-23 22 -42 46
-42 54 0 8 -6 20 -12 27 -11 11 -8 12 17 7 28 -6 90 -64 80 -74 -2 -2 3 -11
11 -20 9 -8 13 -23 11 -34 -4 -13 7 -28 38 -51 25 -18 44 -38 45 -44 0 -7 5
-13 10 -13 19 0 50 -40 50 -65 0 -20 5 -25 25 -25 14 0 25 5 25 10 0 6 11 3
25 -6 18 -11 38 -15 65 -11 38 5 39 4 43 -27 l4 -31 1 32 c2 34 19 42 75 34
22 -3 27 -8 27 -32 0 -16 5 -29 11 -29 8 0 10 13 6 38 l-5 39 108 17 c59 10
117 15 128 12 12 -4 22 -4 22 1 0 10 49 33 71 33 9 0 20 7 23 16 9 23 8 24
-14 24 -24 0 -25 15 -6 52 8 16 18 49 21 75 4 27 13 68 20 93 7 25 19 66 25
93 12 44 14 47 46 47 19 0 34 5 34 10 0 6 -9 10 -20 10 -11 0 -20 5 -20 10 0
6 5 10 10 10 17 0 11 18 -7 23 -11 3 -7 5 10 6 20 1 27 6 27 22 0 16 -4 19
-20 14 -15 -5 -20 -2 -20 11 0 9 -19 38 -41 63 -23 25 -74 82 -113 125 -39 44
-91 101 -115 128 -24 26 -40 48 -36 48 7 0 -7 14 -63 64 -12 11 -23 15 -23 10z
m-16 -328 c26 0 32 -40 13 -86 -19 -47 -19 -50 -6 -50 6 0 10 10 10 23 1 12 7
33 14 45 l13 24 16 -26 c21 -31 21 -36 2 -36 -9 0 -15 -9 -15 -24 0 -26 -22
-50 -35 -38 -4 4 -5 -2 -1 -13 4 -15 1 -21 -12 -21 -9 -1 -25 -4 -34 -9 -14
-5 -18 -2 -18 14 0 12 5 21 10 21 6 0 4 10 -4 23 -8 12 -18 55 -22 95 l-7 73
29 -7 c16 -5 37 -8 47 -8z m159 -67 c20 -22 40 -49 43 -60 4 -10 13 -19 21
-19 17 0 17 0 0 -36 -11 -22 -12 -41 -6 -74 12 -59 12 -120 1 -120 -5 0 -22 7
-37 15 -37 19 -54 19 -54 1 0 -20 -19 -31 -32 -18 -8 8 -8 15 1 26 38 46 5
126 -39 98 -11 -7 -23 -12 -27 -12 -5 0 -1 5 7 10 13 8 12 10 -2 10 -10 0 -18
4 -18 10 0 5 7 7 15 4 12 -5 15 2 15 29 0 26 6 39 26 52 27 17 27 17 20 -8 -3
-14 -2 -28 3 -31 5 -3 11 8 14 24 5 21 11 28 22 24 19 -8 20 19 1 35 -11 9
-17 8 -29 -3 -13 -14 -15 -10 -15 34 -1 64 18 66 70 9z"/>
</g>
</svg>
