<?xml version="1.0" standalone="no"?>
<!DOCTYPE svg PUBLIC "-//W3C//DTD SVG 20010904//EN"
 "http://www.w3.org/TR/2001/REC-SVG-20010904/DTD/svg10.dtd">
<svg version="1.0" xmlns="http://www.w3.org/2000/svg"
 width="64.000000pt" height="64.000000pt" viewBox="0 0 64.000000 64.000000"
 preserveAspectRatio="xMidYMid meet">
<metadata>
Created by potrace 1.16, written by Peter Selinger 2001-2019
</metadata>
<g transform="translate(0.000000,64.000000) scale(0.100000,-0.100000)"
fill="#000000" stroke="none">
<path d="M294 537 c-12 -6 -56 -32 -98 -57 l-76 -45 0 -53 c0 -38 -4 -52 -12
-50 -14 5 -12 76 3 115 10 27 -2 30 -25 7 -12 -11 -16 -36 -16 -94 0 -51 -4
-80 -12 -82 -8 -3 -9 -18 -2 -57 l9 -53 24 19 25 20 45 -25 c26 -13 72 -40
103 -59 l57 -34 48 29 c26 16 70 41 96 56 38 22 46 30 37 41 -12 14 -27 7
-147 -67 l-33 -20 0 41 c0 40 0 40 55 56 30 9 57 19 59 23 2 4 -11 17 -30 30
l-34 22 0 -30 c0 -26 -4 -30 -26 -30 l-26 0 20 34 20 35 -21 14 c-19 13 -21
21 -18 120 1 59 1 107 -1 107 -2 0 -13 -6 -24 -13z"/>
</g>
</svg>
