<?xml version="1.0" standalone="no"?>
<!DOCTYPE svg PUBLIC "-//W3C//DTD SVG 20010904//EN"
 "http://www.w3.org/TR/2001/REC-SVG-20010904/DTD/svg10.dtd">
<svg version="1.0" xmlns="http://www.w3.org/2000/svg"
 width="128.000000pt" height="128.000000pt" viewBox="0 0 128.000000 128.000000"
 preserveAspectRatio="xMidYMid meet">

<g transform="translate(0.000000,128.000000) scale(0.100000,-0.100000)"
fill="#000000" stroke="none">
<path d="M625 1216 c-30 -33 -45 -64 -45 -96 0 -32 4 -37 45 -53 25 -11 43
-23 40 -28 -3 -4 -21 -1 -40 8 -42 20 -49 15 -40 -28 7 -30 9 -31 20 -15 8 11
15 13 20 7 9 -15 68 -14 83 1 10 10 14 10 21 0 6 -10 14 -3 30 23 27 46 39 40
15 -7 -15 -30 -16 -32 0 -19 9 7 26 31 38 52 13 24 29 39 40 39 15 0 17 -4 10
-16 -5 -9 -7 -24 -5 -33 2 -9 -13 -32 -38 -56 -37 -34 -40 -36 -25 -11 l18 29
-26 -19 c-23 -17 -25 -24 -20 -64 8 -54 9 -56 29 -40 12 10 15 10 15 0 0 -7 7
-10 15 -6 20 7 19 -4 -2 -20 -17 -13 -17 -14 2 -7 34 11 35 13 20 44 -15 29
-16 29 -43 12 l-27 -17 24 27 c30 33 35 33 50 1 l11 -26 61 52 c33 29 62 50
65 48 3 -3 -17 -22 -44 -42 -71 -52 -79 -63 -56 -81 18 -13 17 -14 -14 -21
-18 -4 -35 -11 -39 -17 -4 -7 2 -8 18 -3 40 12 125 19 116 10 -5 -5 -30 -14
-55 -21 l-47 -12 65 6 c90 8 112 8 135 -2 18 -8 19 -7 5 10 -13 16 -72 46
-135 69 -16 6 -17 9 -5 16 20 13 70 13 70 0 0 -5 9 -10 20 -10 11 0 20 4 20 8
0 8 74 53 85 52 22 -2 48 3 37 7 -6 2 -10 8 -7 13 3 4 -13 15 -35 24 -22 9
-40 20 -40 26 0 13 -77 50 -115 55 -16 2 -50 15 -75 29 -104 59 -140 76 -160
76 -11 0 -37 8 -58 19 -27 14 -40 16 -47 7z m435 -226 c0 -5 -5 -10 -11 -10
-5 0 -7 5 -4 10 3 6 8 10 11 10 2 0 4 -4 4 -10z m-241 -36 c-32 -34 -44 -30
-18 6 12 16 26 27 31 24 5 -4 -1 -17 -13 -30z"/>
<path d="M556 1007 c3 -10 9 -15 12 -12 3 3 0 11 -7 18 -10 9 -11 8 -5 -6z"/>
<path d="M632 970 c0 -14 2 -19 5 -12 2 6 2 18 0 25 -3 6 -5 1 -5 -13z"/>
<path d="M692 947 c-44 -22 -42 -22 -128 10 -7 3 -17 -16 -23 -44 -10 -40 -19
-53 -57 -78 l-44 -30 35 -28 c32 -27 35 -33 35 -83 0 -30 2 -54 5 -54 2 0 25
10 49 22 44 21 45 21 93 2 26 -10 51 -20 54 -22 4 -2 10 19 14 45 8 62 11 66
63 93 23 12 42 26 42 31 0 4 -18 19 -40 31 -39 22 -40 25 -40 76 0 28 -3 52
-7 51 -5 0 -27 -10 -51 -22z m-50 -81 c5 -7 13 -3 23 12 22 30 35 28 35 -6 0
-20 -7 -32 -22 -40 -22 -10 -22 -11 7 -12 28 -1 29 -2 8 -10 -19 -8 -21 -13
-14 -34 8 -21 5 -66 -5 -66 -2 0 -15 5 -29 12 -19 8 -25 19 -26 42 l0 31 -16
-22 c-8 -13 -19 -23 -23 -23 -9 0 -70 55 -70 64 0 3 19 6 43 7 23 0 36 3 30 6
-8 2 -13 22 -13 44 l0 40 33 -17 c17 -9 35 -22 39 -28z"/>
<path d="M488 885 c-23 -31 -23 -38 1 -23 11 7 17 16 15 20 -3 4 0 8 5 8 6 0
11 5 11 10 0 17 -14 11 -32 -15z"/>
<path d="M809 768 c-55 -39 -56 -41 -64 -100 -4 -26 -13 -51 -20 -56 -12 -6
-11 -15 2 -55 16 -48 12 -70 -9 -49 -6 6 -11 34 -12 61 l-1 50 -48 20 -48 20
-64 -25 c-52 -21 -62 -28 -52 -39 7 -7 15 -11 20 -8 4 2 7 -2 7 -9 1 -9 5 -7
14 5 15 20 30 23 23 4 -3 -8 3 -14 14 -14 10 -1 19 3 19 8 0 6 -4 7 -10 4 -15
-9 -12 8 6 33 20 29 52 28 64 0 5 -13 9 -16 9 -8 1 23 18 -2 26 -39 5 -25 4
-32 -5 -26 -7 4 -23 -6 -40 -26 -25 -29 -29 -31 -30 -14 -1 19 -2 19 -20 -3
-18 -22 -137 -69 -148 -58 -3 3 3 15 13 26 12 13 14 20 5 20 -7 0 -10 7 -6 18
4 10 -2 7 -14 -8 -11 -14 -20 -29 -20 -33 0 -5 -5 -7 -12 -5 -7 3 -12 32 -14
76 l-2 72 49 36 c27 20 49 37 49 38 0 1 -27 -2 -60 -8 -33 -5 -63 -7 -67 -3
-3 4 3 21 16 37 l22 30 -31 0 c-16 0 -30 -5 -30 -10 0 -6 -32 -54 -71 -106
l-71 -97 28 -23 29 -24 -38 -34 c-25 -22 -36 -39 -31 -47 5 -9 2 -10 -9 -6
-10 3 -17 2 -17 -3 0 -16 54 -60 68 -55 6 2 12 -2 12 -10 0 -24 13 -18 60 30
46 47 74 54 93 24 8 -13 4 -33 -17 -80 l-27 -64 29 -25 c79 -68 92 -74 92 -39
0 20 39 119 46 119 3 0 22 -12 45 -27 38 -25 40 -26 54 -7 8 10 18 29 21 41 3
12 12 24 20 27 8 3 14 12 14 20 0 7 7 16 15 20 8 3 15 11 15 19 0 20 57 80 65
68 3 -6 1 -11 -4 -11 -6 0 -11 -9 -11 -20 0 -11 -5 -20 -11 -20 -7 0 -9 -10
-6 -25 3 -17 -2 -34 -14 -48 -16 -19 -18 -19 -12 -3 4 13 3 17 -5 12 -7 -4
-12 -20 -12 -35 0 -16 -9 -40 -20 -54 -11 -14 -20 -29 -20 -34 0 -5 -19 -29
-43 -54 -39 -42 -41 -46 -26 -62 24 -26 42 -21 36 10 -5 27 10 59 46 98 11 11
22 27 26 35 5 13 86 136 115 175 6 8 2 19 -12 33 -12 12 -22 32 -22 45 0 12
-7 31 -15 41 -8 11 -15 29 -15 40 1 21 1 21 17 1 15 -19 15 -19 9 7 -5 23 -3
26 10 21 15 -5 15 -3 -1 20 -10 15 -13 27 -6 27 6 0 8 8 4 18 -6 15 -4 15 15
-2 26 -23 28 -30 6 -22 -10 4 -14 1 -12 -6 7 -21 38 -22 38 -1 0 10 18 37 40
61 24 26 35 44 27 47 -38 11 -39 14 -7 14 24 1 31 4 21 10 -7 5 -10 14 -7 20
15 24 -43 10 -85 -21z m54 -35 c-7 -2 -19 -2 -25 0 -7 3 -2 5 12 5 14 0 19 -2
13 -5z m-68 -33 c3 -5 1 -10 -4 -10 -6 0 -11 5 -11 10 0 6 2 10 4 10 3 0 8 -4
11 -10z m-405 -56 c0 -15 -75 -104 -85 -100 -7 2 -18 -1 -25 -7 -7 -7 9 18 35
55 30 42 53 64 61 61 8 -3 14 -7 14 -9z m-90 -148 c0 -2 -8 -10 -17 -17 -16
-13 -17 -12 -4 4 13 16 21 21 21 13z m40 -70 c0 -2 -8 -10 -17 -17 -16 -13
-17 -12 -4 4 13 16 21 21 21 13z m168 -27 c2 -9 1 -10 -5 -3 -4 6 -18 10 -30
9 -22 -2 -29 6 -17 18 9 9 48 -8 52 -24z m263 4 c-8 -15 -10 -15 -11 -2 0 17
10 32 18 25 2 -3 -1 -13 -7 -23z m-311 -17 c0 -3 -4 -8 -10 -11 -5 -3 -10 -1
-10 4 0 6 5 11 10 11 6 0 10 -2 10 -4z m-175 -16 c-3 -5 -11 -10 -16 -10 -6 0
-7 5 -4 10 3 6 11 10 16 10 6 0 7 -4 4 -10z m210 0 c3 -6 -1 -7 -9 -4 -18 7
-21 14 -7 14 6 0 13 -4 16 -10z m-12 -27 c-7 -3 -13 -17 -14 -31 l0 -27 -10
24 c-6 14 -15 21 -24 17 -12 -4 -13 -2 -3 13 7 12 19 16 37 13 14 -3 20 -7 14
-9z m18 -20 c-12 -20 -14 -14 -5 12 4 9 9 14 11 11 3 -2 0 -13 -6 -23z m-61
-23 c0 -5 -7 -7 -15 -4 -8 4 -15 8 -15 10 0 2 7 4 15 4 8 0 15 -4 15 -10z m4
-23 c16 -12 16 -13 -3 -13 -12 0 -21 4 -21 9 0 4 -4 5 -10 2 -5 -3 -10 -1 -10
4 0 15 22 14 44 -2z"/>
<path d="M930 790 c0 -12 8 -12 35 0 18 8 17 9 -7 9 -16 1 -28 -3 -28 -9z"/>
<path d="M418 773 c7 -3 16 -2 19 1 4 3 -2 6 -13 5 -11 0 -14 -3 -6 -6z"/>
<path d="M934 753 c3 -8 2 -12 -3 -9 -5 3 -21 -13 -37 -37 l-28 -42 40 30 c21
16 47 37 57 46 17 16 17 17 -8 21 -20 4 -25 2 -21 -9z"/>
<path d="M430 750 c-12 -8 -11 -10 7 -10 12 0 25 5 28 10 8 13 -15 13 -35 0z"/>
<path d="M465 640 c-3 -5 -1 -10 4 -10 6 0 11 5 11 10 0 6 -2 10 -4 10 -3 0
-8 -4 -11 -10z"/>
<path d="M836 621 c-4 -6 -4 -11 1 -11 4 0 3 -4 -3 -8 -22 -14 -24 -56 -3 -82
19 -24 20 -25 34 -6 22 29 18 45 -5 18 l-19 -23 1 23 c0 13 5 36 11 51 10 30
-3 60 -17 38z"/>
<path d="M502 525 c-17 -37 -14 -45 4 -12 9 16 14 31 11 33 -2 2 -9 -7 -15
-21z"/>
<path d="M548 543 c12 -2 30 -2 40 0 9 3 -1 5 -23 4 -22 0 -30 -2 -17 -4z"/>
<path d="M780 540 c0 -8 9 -28 20 -45 26 -39 26 -26 0 22 -11 21 -20 31 -20
23z"/>
</g>
</svg>
